<svg t="1627278115397" class="icon" viewBox="0 0 1024 1024" version="1.1" xmlns="http://www.w3.org/2000/svg" p-id="1572" width="200" height="200"><path d="M512 64c-150.221977 0-272.000294 119.390161-272.000294 266.667255v106.666667c0 147.275917 121.778317 266.666078 272.000294 266.666078S784.000294 584.609839 784.000294 437.332745v-106.666667C784.000294 183.390161 662.221977 64 512 64zM512 0c185.567632 0 336.000294 150.432662 336.000294 336.000294v95.999412C848.000294 617.567338 697.567632 768 512 768S175.999706 617.567338 175.999706 431.999706V336.001471C175.999706 150.432662 326.432368 0 512 0z m31.991172 927.016607v64.982804c0 17.674005-14.326584 32.000589-32.000588 32.000589-17.672828 0-31.999411-14.326584-31.999412-32.000589v-64.982804C212.131605 910.491366 0 688.018538 0 415.999411V384c0-17.672828 14.326584-32.000589 32.000589-32.000589 17.672828 0 31.999411 14.327761 31.999411 32.000589v32.000589c0 247.423117 200.576883 448 448 448S960 663.422529 960 416.000589V384c0-17.672828 14.326584-32.000589 32.000589-32.000589 17.672828 0 31.999411 14.327761 31.999411 32.000589v32.000589c0 272.025011-212.141021 494.502547-480.008828 511.016018z" fill="#333333" p-id="1573"></path><path d="M416.000589 192m32.000588 0l127.998823 0q32.000589 0 32.000589 32.000589l0-0.001178q0 32.000589-32.000589 32.000589l-127.998823 0q-32.000589 0-32.000588-32.000589l0 0.001178q0-32.000589 32.000588-32.000589Z" fill="#000000" p-id="1574"></path></svg>